<svg xmlns="http://www.w3.org/2000/svg" viewBox="0 0 400 300" width="400" height="300"><defs><radialGradient id="bg" cx="50%" cy="38%" r="75%"><stop offset="0" stop-color="#23262f"/><stop offset="1" stop-color="#080c12"/></radialGradient><radialGradient id="gl" cx="50%" cy="50%" r="50%"><stop offset="0" stop-color="#f6c453" stop-opacity=".55"/><stop offset="1" stop-color="#f6c453" stop-opacity="0"/></radialGradient></defs><rect width="400" height="300" fill="url(#bg)"/><ellipse cx="200" cy="170" rx="185" ry="140" fill="url(#gl)"/><ellipse cx="200" cy="262" rx="120" ry="20" fill="#000" opacity=".35"/><defs><clipPath id="ct"><polygon points="200,75 286,118 200,161 114,118"/></clipPath><clipPath id="cl"><polygon points="114,118 200,161 200,253 114,210"/></clipPath><clipPath id="cr"><polygon points="286,118 200,161 200,253 286,210"/></clipPath></defs><polygon points="200,75 286,118 200,161 114,118" fill="#c08a52"/><polygon points="114,118 200,161 200,253 114,210" fill="#a97240"/><polygon points="286,118 200,161 200,253 286,210" fill="#8a5c33"/><g clip-path="url(#ct)"><rect x="202" y="84" width="11" height="11" fill="#ffffff" opacity="0.16"/><rect x="233" y="142" width="11" height="11" fill="#000000" opacity="0.16"/><rect x="178" y="127" width="11" height="11" fill="#000000" opacity="0.16"/><rect x="176" y="142" width="11" height="11" fill="#000000" opacity="0.16"/><rect x="251" y="109" width="11" height="11" fill="#ffffff" opacity="0.16"/><rect x="163" y="113" width="11" height="11" fill="#000000" opacity="0.16"/><rect x="171" y="116" width="11" height="11" fill="#ffffff" opacity="0.16"/><rect x="172" y="113" width="11" height="11" fill="#000000" opacity="0.16"/><rect x="203" y="108" width="11" height="11" fill="#000000" opacity="0.16"/><rect x="233" y="141" width="11" height="11" fill="#000000" opacity="0.16"/><rect x="145" y="111" width="11" height="11" fill="#ffffff" opacity="0.16"/><rect x="158" y="112" width="11" height="11" fill="#ffffff" opacity="0.16"/><rect x="263" y="130" width="11" height="11" fill="#000000" opacity="0.16"/><rect x="162" y="110" width="11" height="11" fill="#000000" opacity="0.16"/><rect x="153" y="135" width="11" height="11" fill="#000000" opacity="0.16"/><rect x="198" y="99" width="11" height="11" fill="#000000" opacity="0.16"/><rect x="133" y="76" width="11" height="11" fill="#000000" opacity="0.16"/><rect x="271" y="100" width="11" height="11" fill="#ffffff" opacity="0.16"/><rect x="140" y="104" width="11" height="11" fill="#ffffff" opacity="0.16"/><rect x="227" y="136" width="11" height="11" fill="#000000" opacity="0.16"/><rect x="157" y="94" width="11" height="11" fill="#ffffff" opacity="0.16"/><rect x="140" y="102" width="11" height="11" fill="#000000" opacity="0.16"/><rect x="141" y="96" width="11" height="11" fill="#ffffff" opacity="0.16"/><rect x="235" y="95" width="11" height="11" fill="#ffffff" opacity="0.16"/><rect x="186" y="131" width="11" height="11" fill="#000000" opacity="0.16"/><rect x="197" y="119" width="11" height="11" fill="#ffffff" opacity="0.16"/></g><g clip-path="url(#cl)"><rect x="124" y="178" width="11" height="11" fill="#000000" opacity="0.20"/><rect x="181" y="236" width="11" height="11" fill="#000000" opacity="0.20"/><rect x="118" y="162" width="11" height="11" fill="#ffffff" opacity="0.20"/><rect x="177" y="129" width="11" height="11" fill="#000000" opacity="0.20"/><rect x="177" y="155" width="11" height="11" fill="#000000" opacity="0.20"/><rect x="128" y="169" width="11" height="11" fill="#000000" opacity="0.20"/><rect x="171" y="126" width="11" height="11" fill="#ffffff" opacity="0.20"/><rect x="178" y="157" width="11" height="11" fill="#ffffff" opacity="0.20"/><rect x="121" y="122" width="11" height="11" fill="#ffffff" opacity="0.20"/><rect x="154" y="212" width="11" height="11" fill="#ffffff" opacity="0.20"/><rect x="126" y="155" width="11" height="11" fill="#ffffff" opacity="0.20"/><rect x="133" y="161" width="11" height="11" fill="#ffffff" opacity="0.20"/><rect x="119" y="147" width="11" height="11" fill="#000000" opacity="0.20"/><rect x="171" y="152" width="11" height="11" fill="#000000" opacity="0.20"/><rect x="116" y="132" width="11" height="11" fill="#000000" opacity="0.20"/><rect x="181" y="182" width="11" height="11" fill="#ffffff" opacity="0.20"/><rect x="133" y="210" width="11" height="11" fill="#000000" opacity="0.20"/><rect x="142" y="145" width="11" height="11" fill="#000000" opacity="0.20"/><rect x="177" y="191" width="11" height="11" fill="#ffffff" opacity="0.20"/><rect x="161" y="129" width="11" height="11" fill="#ffffff" opacity="0.20"/><rect x="179" y="229" width="11" height="11" fill="#000000" opacity="0.20"/><rect x="172" y="126" width="11" height="11" fill="#ffffff" opacity="0.20"/><rect x="170" y="201" width="11" height="11" fill="#000000" opacity="0.20"/><rect x="162" y="174" width="11" height="11" fill="#000000" opacity="0.20"/><rect x="144" y="217" width="11" height="11" fill="#ffffff" opacity="0.20"/><rect x="118" y="143" width="11" height="11" fill="#000000" opacity="0.20"/></g><g clip-path="url(#cr)"><rect x="228" y="152" width="11" height="11" fill="#ffffff" opacity="0.20"/><rect x="202" y="192" width="11" height="11" fill="#000000" opacity="0.20"/><rect x="247" y="123" width="11" height="11" fill="#000000" opacity="0.20"/><rect x="247" y="203" width="11" height="11" fill="#ffffff" opacity="0.20"/><rect x="223" y="170" width="11" height="11" fill="#000000" opacity="0.20"/><rect x="209" y="205" width="11" height="11" fill="#000000" opacity="0.20"/><rect x="257" y="152" width="11" height="11" fill="#ffffff" opacity="0.20"/><rect x="259" y="149" width="11" height="11" fill="#000000" opacity="0.20"/><rect x="259" y="154" width="11" height="11" fill="#000000" opacity="0.20"/><rect x="223" y="171" width="11" height="11" fill="#000000" opacity="0.20"/><rect x="223" y="173" width="11" height="11" fill="#000000" opacity="0.20"/><rect x="211" y="136" width="11" height="11" fill="#ffffff" opacity="0.20"/><rect x="258" y="196" width="11" height="11" fill="#ffffff" opacity="0.20"/><rect x="252" y="168" width="11" height="11" fill="#000000" opacity="0.20"/><rect x="204" y="162" width="11" height="11" fill="#ffffff" opacity="0.20"/><rect x="249" y="164" width="11" height="11" fill="#000000" opacity="0.20"/><rect x="202" y="146" width="11" height="11" fill="#ffffff" opacity="0.20"/><rect x="256" y="196" width="11" height="11" fill="#ffffff" opacity="0.20"/><rect x="212" y="189" width="11" height="11" fill="#ffffff" opacity="0.20"/><rect x="214" y="122" width="11" height="11" fill="#ffffff" opacity="0.20"/><rect x="254" y="153" width="11" height="11" fill="#ffffff" opacity="0.20"/><rect x="219" y="192" width="11" height="11" fill="#000000" opacity="0.20"/><rect x="268" y="210" width="11" height="11" fill="#000000" opacity="0.20"/><rect x="248" y="127" width="11" height="11" fill="#ffffff" opacity="0.20"/><rect x="266" y="125" width="11" height="11" fill="#ffffff" opacity="0.20"/><rect x="257" y="192" width="11" height="11" fill="#000000" opacity="0.20"/></g><polyline points="114,118 200,161 286,118" fill="none" stroke="#000" stroke-opacity=".28" stroke-width="3"/><line x1="200" y1="161" x2="200" y2="253" stroke="#000" stroke-opacity=".28" stroke-width="3"/><g transform="translate(200,104) scale(1.05) translate(-50,-50)" style="filter:drop-shadow(0 6px 10px rgba(0,0,0,.55))"><rect x="14" y="34" width="72" height="54" rx="5" fill="#a97240"/><rect x="14" y="20" width="72" height="22" rx="5" fill="#c08a52"/><rect x="42" y="34" width="16" height="20" rx="3" fill="#3a3a3a"/><circle cx="50" cy="46" r="4" fill="#d9d9d9"/></g></svg>