<svg xmlns="http://www.w3.org/2000/svg" viewBox="0 0 400 300" width="400" height="300"><defs><radialGradient id="bg" cx="50%" cy="38%" r="75%"><stop offset="0" stop-color="#241d38"/><stop offset="1" stop-color="#080a16"/></radialGradient><radialGradient id="gl" cx="50%" cy="50%" r="50%"><stop offset="0" stop-color="#ffd24a" stop-opacity=".55"/><stop offset="1" stop-color="#ffd24a" stop-opacity="0"/></radialGradient></defs><rect width="400" height="300" fill="url(#bg)"/><ellipse cx="200" cy="170" rx="185" ry="140" fill="url(#gl)"/><ellipse cx="200" cy="262" rx="120" ry="20" fill="#000" opacity=".35"/><defs><clipPath id="ct"><polygon points="200,75 286,118 200,161 114,118"/></clipPath><clipPath id="cl"><polygon points="114,118 200,161 200,253 114,210"/></clipPath><clipPath id="cr"><polygon points="286,118 200,161 200,253 286,210"/></clipPath></defs><polygon points="200,75 286,118 200,161 114,118" fill="#e8c34a"/><polygon points="114,118 200,161 200,253 114,210" fill="#3f8ede"/><polygon points="286,118 200,161 200,253 286,210" fill="#e2483d"/><g clip-path="url(#ct)"><rect x="135" y="115" width="11" height="11" fill="#ffffff" opacity="0.16"/><rect x="115" y="95" width="11" height="11" fill="#ffffff" opacity="0.16"/><rect x="160" y="120" width="11" height="11" fill="#ffffff" opacity="0.16"/><rect x="116" y="136" width="11" height="11" fill="#ffffff" opacity="0.16"/><rect x="149" y="140" width="11" height="11" fill="#ffffff" opacity="0.16"/><rect x="209" y="91" width="11" height="11" fill="#000000" opacity="0.16"/><rect x="240" y="108" width="11" height="11" fill="#ffffff" opacity="0.16"/><rect x="240" y="140" width="11" height="11" fill="#000000" opacity="0.16"/><rect x="140" y="108" width="11" height="11" fill="#ffffff" opacity="0.16"/><rect x="227" y="137" width="11" height="11" fill="#000000" opacity="0.16"/><rect x="173" y="127" width="11" height="11" fill="#ffffff" opacity="0.16"/><rect x="228" y="111" width="11" height="11" fill="#000000" opacity="0.16"/><rect x="216" y="113" width="11" height="11" fill="#ffffff" opacity="0.16"/><rect x="120" y="84" width="11" height="11" fill="#ffffff" opacity="0.16"/><rect x="268" y="146" width="11" height="11" fill="#ffffff" opacity="0.16"/><rect x="119" y="112" width="11" height="11" fill="#ffffff" opacity="0.16"/><rect x="220" y="113" width="11" height="11" fill="#000000" opacity="0.16"/><rect x="114" y="141" width="11" height="11" fill="#ffffff" opacity="0.16"/><rect x="119" y="138" width="11" height="11" fill="#000000" opacity="0.16"/><rect x="156" y="136" width="11" height="11" fill="#ffffff" opacity="0.16"/><rect x="136" y="103" width="11" height="11" fill="#000000" opacity="0.16"/><rect x="183" y="85" width="11" height="11" fill="#000000" opacity="0.16"/><rect x="262" y="120" width="11" height="11" fill="#ffffff" opacity="0.16"/><rect x="166" y="78" width="11" height="11" fill="#000000" opacity="0.16"/><rect x="200" y="115" width="11" height="11" fill="#000000" opacity="0.16"/><rect x="122" y="145" width="11" height="11" fill="#ffffff" opacity="0.16"/></g><g clip-path="url(#cl)"><rect x="122" y="133" width="11" height="11" fill="#ffffff" opacity="0.20"/><rect x="129" y="177" width="11" height="11" fill="#ffffff" opacity="0.20"/><rect x="120" y="142" width="11" height="11" fill="#000000" opacity="0.20"/><rect x="153" y="142" width="11" height="11" fill="#ffffff" opacity="0.20"/><rect x="177" y="222" width="11" height="11" fill="#000000" opacity="0.20"/><rect x="184" y="150" width="11" height="11" fill="#ffffff" opacity="0.20"/><rect x="169" y="195" width="11" height="11" fill="#000000" opacity="0.20"/><rect x="171" y="238" width="11" height="11" fill="#000000" opacity="0.20"/><rect x="115" y="121" width="11" height="11" fill="#ffffff" opacity="0.20"/><rect x="177" y="178" width="11" height="11" fill="#ffffff" opacity="0.20"/><rect x="150" y="128" width="11" height="11" fill="#ffffff" opacity="0.20"/><rect x="138" y="119" width="11" height="11" fill="#ffffff" opacity="0.20"/><rect x="169" y="206" width="11" height="11" fill="#ffffff" opacity="0.20"/><rect x="139" y="198" width="11" height="11" fill="#000000" opacity="0.20"/><rect x="145" y="223" width="11" height="11" fill="#ffffff" opacity="0.20"/><rect x="132" y="207" width="11" height="11" fill="#000000" opacity="0.20"/><rect x="141" y="130" width="11" height="11" fill="#ffffff" opacity="0.20"/><rect x="157" y="203" width="11" height="11" fill="#000000" opacity="0.20"/><rect x="133" y="238" width="11" height="11" fill="#ffffff" opacity="0.20"/><rect x="159" y="163" width="11" height="11" fill="#ffffff" opacity="0.20"/><rect x="116" y="180" width="11" height="11" fill="#ffffff" opacity="0.20"/><rect x="133" y="188" width="11" height="11" fill="#000000" opacity="0.20"/><rect x="152" y="234" width="11" height="11" fill="#000000" opacity="0.20"/><rect x="171" y="204" width="11" height="11" fill="#000000" opacity="0.20"/><rect x="171" y="210" width="11" height="11" fill="#ffffff" opacity="0.20"/><rect x="168" y="171" width="11" height="11" fill="#ffffff" opacity="0.20"/></g><g clip-path="url(#cr)"><rect x="246" y="179" width="11" height="11" fill="#000000" opacity="0.20"/><rect x="243" y="207" width="11" height="11" fill="#000000" opacity="0.20"/><rect x="265" y="152" width="11" height="11" fill="#000000" opacity="0.20"/><rect x="228" y="228" width="11" height="11" fill="#ffffff" opacity="0.20"/><rect x="225" y="194" width="11" height="11" fill="#000000" opacity="0.20"/><rect x="220" y="206" width="11" height="11" fill="#000000" opacity="0.20"/><rect x="203" y="215" width="11" height="11" fill="#000000" opacity="0.20"/><rect x="262" y="187" width="11" height="11" fill="#ffffff" opacity="0.20"/><rect x="215" y="161" width="11" height="11" fill="#000000" opacity="0.20"/><rect x="268" y="141" width="11" height="11" fill="#ffffff" opacity="0.20"/><rect x="244" y="127" width="11" height="11" fill="#ffffff" opacity="0.20"/><rect x="242" y="223" width="11" height="11" fill="#000000" opacity="0.20"/><rect x="215" y="131" width="11" height="11" fill="#ffffff" opacity="0.20"/><rect x="258" y="204" width="11" height="11" fill="#ffffff" opacity="0.20"/><rect x="261" y="128" width="11" height="11" fill="#000000" opacity="0.20"/><rect x="257" y="183" width="11" height="11" fill="#000000" opacity="0.20"/><rect x="204" y="201" width="11" height="11" fill="#000000" opacity="0.20"/><rect x="261" y="186" width="11" height="11" fill="#000000" opacity="0.20"/><rect x="243" y="191" width="11" height="11" fill="#000000" opacity="0.20"/><rect x="255" y="231" width="11" height="11" fill="#ffffff" opacity="0.20"/><rect x="223" y="220" width="11" height="11" fill="#000000" opacity="0.20"/><rect x="253" y="150" width="11" height="11" fill="#000000" opacity="0.20"/><rect x="265" y="168" width="11" height="11" fill="#000000" opacity="0.20"/><rect x="224" y="152" width="11" height="11" fill="#ffffff" opacity="0.20"/><rect x="219" y="217" width="11" height="11" fill="#000000" opacity="0.20"/><rect x="208" y="213" width="11" height="11" fill="#ffffff" opacity="0.20"/></g><polyline points="114,118 200,161 286,118" fill="none" stroke="#000" stroke-opacity=".28" stroke-width="3"/><line x1="200" y1="161" x2="200" y2="253" stroke="#000" stroke-opacity=".28" stroke-width="3"/><g transform="translate(200,104) scale(1.05) translate(-50,-50)" style="filter:drop-shadow(0 6px 10px rgba(0,0,0,.55))"><g><circle cx="34" cy="38" r="18" fill="#e2483d"/><circle cx="64" cy="36" r="16" fill="#3f8ede"/><circle cx="42" cy="66" r="16" fill="#e8c34a"/><circle cx="68" cy="64" r="14" fill="#5fb14b"/></g></g></svg>